<svg xmlns="http://www.w3.org/2000/svg" xmlns:xlink="http://www.w3.org/1999/xlink" width="24" height="24" viewBox="0 0 24 24">
  <defs>
    <clipPath id="clip-path">
      <rect id="Rectángulo_604" data-name="Rectángulo 604" width="24" height="24" transform="translate(-2186 3317)" fill="#c567f2" stroke="#707070" stroke-width="1"/>
    </clipPath>
  </defs>
  <g id="icon-delete" transform="translate(2186 -3317)" clip-path="url(#clip-path)">
    <path id="delete_FILL0_wght400_GRAD0_opsz24" d="M163.938-816a2.508,2.508,0,0,1-1.854-.783,2.588,2.588,0,0,1-.771-1.883V-836a1.26,1.26,0,0,1-.935-.383,1.3,1.3,0,0,1-.377-.95,1.3,1.3,0,0,1,.377-.95,1.26,1.26,0,0,1,.935-.383h5.25a1.3,1.3,0,0,1,.377-.95,1.26,1.26,0,0,1,.935-.383h5.25a1.26,1.26,0,0,1,.935.383,1.3,1.3,0,0,1,.377.95h5.25a1.26,1.26,0,0,1,.935.383,1.3,1.3,0,0,1,.377.95,1.3,1.3,0,0,1-.377.95,1.26,1.26,0,0,1-.935.383v17.333a2.588,2.588,0,0,1-.771,1.883,2.508,2.508,0,0,1-1.854.783Zm13.125-20H163.938v17.333h13.125Zm-10.5,14.667h2.625v-12h-2.625Zm5.25,0h2.625v-12h-2.625ZM163.938-836v0Z" transform="translate(-2344.5 4157)" fill="#c567f2"/>
  </g>
</svg>
