<svg xmlns="http://www.w3.org/2000/svg" xmlns:xlink="http://www.w3.org/1999/xlink" width="16" height="16" viewBox="0 0 16 16">
  <defs>
    <clipPath id="clip-path">
      <rect id="Rect치ngulo_311" data-name="Rect치ngulo 311" width="16" height="16" transform="translate(-2176.412 3277.588)" fill="#c567f2" stroke="#707070" stroke-width="1"/>
    </clipPath>
    <clipPath id="clip-path-2">
      <rect id="Rect치ngulo_332" data-name="Rect치ngulo 332" width="16" height="16" transform="translate(-2392 3248)" fill="#c567f2" stroke="#707070" stroke-width="1"/>
    </clipPath>
  </defs>
  <g id="icon-date" transform="translate(2176.412 -3277.588)" clip-path="url(#clip-path)">
    <g id="icon-close" transform="translate(215.588 29.588)" clip-path="url(#clip-path-2)">
      <path id="close_FILL0_wght400_GRAD0_opsz24" d="M225-733.3l-5.962,5.962a1.154,1.154,0,0,1-.852.335,1.154,1.154,0,0,1-.852-.335,1.154,1.154,0,0,1-.335-.852,1.154,1.154,0,0,1,.335-.852L223.3-735l-5.962-5.962a1.154,1.154,0,0,1-.335-.852,1.154,1.154,0,0,1,.335-.852,1.154,1.154,0,0,1,.852-.335,1.154,1.154,0,0,1,.852.335L225-736.7l5.962-5.962a1.154,1.154,0,0,1,.852-.335,1.154,1.154,0,0,1,.852.335,1.154,1.154,0,0,1,.335.852,1.154,1.154,0,0,1-.335.852L226.7-735l5.962,5.962a1.154,1.154,0,0,1,.335.852,1.154,1.154,0,0,1-.335.852,1.154,1.154,0,0,1-.852.335,1.154,1.154,0,0,1-.852-.335Z" transform="translate(-2609 3991)" fill="#c567f2"/>
    </g>
  </g>
</svg>
